<?xml version="1.0" standalone="no"?>
<!DOCTYPE svg PUBLIC "-//W3C//DTD SVG 20010904//EN"
 "http://www.w3.org/TR/2001/REC-SVG-20010904/DTD/svg10.dtd">
<svg version="1.0" xmlns="http://www.w3.org/2000/svg"
 width="512.000000pt" height="512.000000pt" viewBox="0 0 512.000000 512.000000"
 preserveAspectRatio="xMidYMid meet">
<metadata>
Created by potrace 1.11, written by Peter Selinger 2001-2013
</metadata>
<g transform="translate(0.000000,512.000000) scale(0.100000,-0.100000)"
fill="#000000" stroke="none">
<path d="M2255 5099 c-353 -44 -673 -150 -975 -323 -269 -154 -531 -382 -732
-636 -49 -62 -188 -264 -188 -273 0 -4 -17 -35 -38 -69 -20 -35 -43 -74 -49
-88 -53 -111 -93 -203 -93 -209 0 -5 -13 -42 -29 -82 -28 -72 -76 -230 -86
-286 -2 -16 -9 -50 -15 -78 -12 -57 -15 -77 -31 -195 -14 -99 -19 -436 -8
-518 4 -31 10 -84 14 -117 25 -239 123 -562 245 -805 69 -138 187 -325 277
-440 184 -234 479 -493 707 -619 32 -18 81 -46 108 -62 27 -16 51 -29 53 -29
2 0 41 -17 87 -38 192 -89 470 -174 648 -197 14 -2 63 -9 110 -16 49 -7 178
-13 305 -12 219 0 355 13 505 47 36 8 79 17 95 19 17 3 66 16 110 31 44 14 83
26 87 26 17 0 197 73 288 116 320 153 580 347 814 609 168 187 260 323 397
585 24 46 90 201 94 220 2 8 14 45 28 81 49 129 102 373 122 559 11 96 13 341
4 455 -60 788 -477 1500 -1138 1939 -67 44 -277 166 -287 166 -2 0 -39 16 -81
36 -107 48 -107 48 -208 83 -153 52 -382 106 -495 116 -30 3 -73 8 -95 12 -83
13 -419 9 -550 -8z"/>
</g>
</svg>
